<svg width="278" height="123" viewBox="0 0 278 123" fill="none" xmlns="http://www.w3.org/2000/svg">
<g filter="url(#filter0_dd_2054_1493)">
<rect x="6.88306" y="3.44165" width="264" height="71.8052" rx="12" fill="white"/>
<path d="M23.9677 17.5515H68.786C70.4284 17.5517 71.7596 18.8837 71.7596 20.5261C71.7595 22.1684 70.4283 23.4996 68.786 23.4998H23.9677C22.3252 23.4998 20.9931 22.1686 20.993 20.5261C20.993 18.8836 22.3251 17.5515 23.9677 17.5515Z" fill="#E0E0E0"/>
<path d="M23.9677 17.5515H68.786C70.4284 17.5517 71.7596 18.8837 71.7596 20.5261C71.7595 22.1684 70.4283 23.4996 68.786 23.4998H23.9677C22.3252 23.4998 20.9931 22.1686 20.993 20.5261C20.993 18.8836 22.3251 17.5515 23.9677 17.5515Z" stroke="#CBCBCB" stroke-width="0.688312"/>
<path d="M25.4677 50.188H51.5243C53.9952 50.188 55.9989 52.1917 55.9989 54.6626C55.9988 57.1335 53.9952 59.1362 51.5243 59.1362H25.4677C22.9968 59.1362 20.9931 57.1335 20.993 54.6626C20.993 52.1917 22.9967 50.188 25.4677 50.188Z" fill="#F3F3F3"/>
<path d="M25.4677 50.188H51.5243C53.9952 50.188 55.9989 52.1917 55.9989 54.6626C55.9988 57.1335 53.9952 59.1362 51.5243 59.1362H25.4677C22.9968 59.1362 20.9931 57.1335 20.993 54.6626C20.993 52.1917 22.9967 50.188 25.4677 50.188Z" stroke="#E6E6E6" stroke-width="0.688312"/>
<path d="M66.161 50.188H115.191C117.662 50.1881 119.665 52.1917 119.665 54.6626C119.665 57.1334 117.662 59.1361 115.191 59.1362H66.161C63.6901 59.1362 61.6865 57.1335 61.6864 54.6626C61.6864 52.1917 63.6901 50.188 66.161 50.188Z" fill="#F3F3F3"/>
<path d="M66.161 50.188H115.191C117.662 50.1881 119.665 52.1917 119.665 54.6626C119.665 57.1334 117.662 59.1361 115.191 59.1362H66.161C63.6901 59.1362 61.6865 57.1335 61.6864 54.6626C61.6864 52.1917 63.6901 50.188 66.161 50.188Z" stroke="#E6E6E6" stroke-width="0.688312"/>
<path d="M129.83 50.188C132.301 50.1882 134.305 52.1919 134.305 54.6626C134.305 57.1332 132.3 59.1361 129.83 59.1362C127.359 59.1362 125.353 57.1333 125.353 54.6626C125.353 52.1918 127.358 50.188 129.83 50.188Z" fill="#F3F3F3"/>
<path d="M129.83 50.188C132.301 50.1882 134.305 52.1919 134.305 54.6626C134.305 57.1332 132.3 59.1361 129.83 59.1362C127.359 59.1362 125.353 57.1333 125.353 54.6626C125.353 52.1918 127.358 50.188 129.83 50.188Z" stroke="#E6E6E6" stroke-width="0.688312"/>
<path d="M243.475 54.6624C243.475 50.8968 246.531 47.8442 250.296 47.8442C254.062 47.8442 257.117 50.8968 257.117 54.6624C257.117 58.428 254.062 61.4806 250.296 61.4806C246.531 61.4806 243.475 58.428 243.475 54.6624Z" fill="#222222"/>
<path d="M251.334 17.6062C251.225 17.6062 251.156 17.531 251.143 17.4285C250.965 16.3279 250.972 16.3005 249.81 16.0955C249.694 16.075 249.625 16.0066 249.625 15.8972C249.625 15.7947 249.694 15.7263 249.796 15.7058C250.979 15.4802 250.972 15.4529 251.143 14.3728C251.156 14.2634 251.225 14.1882 251.334 14.1882C251.444 14.1882 251.512 14.2634 251.532 14.366C251.71 15.4802 251.697 15.5144 252.872 15.7058C252.975 15.7195 253.05 15.7947 253.05 15.8972C253.05 16.0066 252.982 16.075 252.872 16.0955C251.697 16.321 251.717 16.3416 251.532 17.4353C251.512 17.531 251.444 17.6062 251.334 17.6062ZM248.012 22.5144C247.848 22.5144 247.725 22.3982 247.704 22.2205C247.486 20.4363 247.424 20.3748 245.585 20.0945C245.394 20.0671 245.278 19.9578 245.278 19.7869C245.278 19.6228 245.394 19.5066 245.551 19.4792C247.424 19.1375 247.486 19.1306 247.704 17.3533C247.725 17.1755 247.848 17.0593 248.012 17.0593C248.176 17.0593 248.299 17.1755 248.32 17.3464C248.552 19.1785 248.607 19.2263 250.473 19.4792C250.63 19.4998 250.746 19.6228 250.746 19.7869C250.746 19.9509 250.63 20.0671 250.473 20.0945C248.593 20.4363 248.552 20.45 248.32 22.241C248.299 22.3982 248.169 22.5144 248.012 22.5144ZM252.906 30.1228C252.64 30.1228 252.435 29.9314 252.387 29.6511C251.82 26.0212 251.362 25.5701 247.827 25.0847C247.54 25.0437 247.342 24.8318 247.342 24.5583C247.342 24.2849 247.547 24.0662 247.834 24.032C251.375 23.6355 251.881 23.0955 252.387 19.4724C252.428 19.1921 252.64 19.0007 252.906 19.0007C253.166 19.0007 253.378 19.1921 253.426 19.4724C253.973 23.0955 254.445 23.5945 257.986 24.032C258.266 24.073 258.471 24.2917 258.471 24.5583C258.471 24.8318 258.266 25.0574 257.979 25.0847C254.431 25.488 253.925 26.0212 253.426 29.6511C253.378 29.9314 253.173 30.1228 252.906 30.1228Z" fill="#A6A6A6"/>
</g>
<rect x="6.88306" y="87.6365" width="80" height="25.3071" rx="12.6536" fill="#E8E8E8"/>
<path d="M14.8831 100.29C14.8831 97.7199 16.968 95.6365 19.5381 95.6365C22.1081 95.6365 24.1931 97.7199 24.1931 100.29C24.1931 102.86 22.1081 104.944 19.5381 104.944C16.968 104.944 14.8831 102.86 14.8831 100.29Z" fill="#CCCCCC"/>
<path d="M28.1931 100.29C28.1931 98.8245 29.3812 97.6365 30.8467 97.6365H76.2295C77.6951 97.6365 78.8831 98.8245 78.8831 100.29C78.8831 101.756 77.6951 102.944 76.2295 102.944H30.8467C29.3812 102.944 28.1931 101.756 28.1931 100.29Z" fill="#777777"/>
<g filter="url(#filter1_dd_2054_1493)">
<rect x="98.8831" y="87.6365" width="80" height="25.3071" rx="12.6536" fill="white"/>
<path d="M111.538 95.9451C113.938 95.9452 115.885 97.8904 115.885 100.29C115.885 102.689 113.938 104.635 111.538 104.635C109.138 104.635 107.192 102.689 107.192 100.29C107.192 97.8903 109.139 95.9451 111.538 95.9451Z" fill="#F3F3F3"/>
<path d="M111.538 95.9451C113.938 95.9452 115.885 97.8904 115.885 100.29C115.885 102.689 113.938 104.635 111.538 104.635C109.138 104.635 107.192 102.689 107.192 100.29C107.192 97.8903 109.139 95.9451 111.538 95.9451Z" stroke="#E6E6E6" stroke-width="0.616799"/>
<path d="M122.846 97.9451H168.229C169.524 97.9451 170.575 98.9947 170.575 100.29C170.575 101.585 169.524 102.635 168.229 102.635H122.846C121.551 102.635 120.502 101.585 120.502 100.29C120.502 98.9948 121.551 97.9452 122.846 97.9451Z" fill="#F3F3F3"/>
<path d="M122.846 97.9451H168.229C169.524 97.9451 170.575 98.9947 170.575 100.29C170.575 101.585 169.524 102.635 168.229 102.635H122.846C121.551 102.635 120.502 101.585 120.502 100.29C120.502 98.9948 121.551 97.9452 122.846 97.9451Z" stroke="#E6E6E6" stroke-width="0.616799"/>
</g>
<g filter="url(#filter2_dd_2054_1493)">
<rect x="190.883" y="87.6365" width="80" height="25.3071" rx="12.6536" fill="white"/>
<path d="M203.538 95.9451C205.938 95.9452 207.885 97.8904 207.885 100.29C207.885 102.689 205.938 104.635 203.538 104.635C201.138 104.635 199.192 102.689 199.192 100.29C199.192 97.8903 201.139 95.9451 203.538 95.9451Z" fill="#F3F3F3"/>
<path d="M203.538 95.9451C205.938 95.9452 207.885 97.8904 207.885 100.29C207.885 102.689 205.938 104.635 203.538 104.635C201.138 104.635 199.192 102.689 199.192 100.29C199.192 97.8903 201.139 95.9451 203.538 95.9451Z" stroke="#E6E6E6" stroke-width="0.616799"/>
<path d="M214.846 97.9451H260.229C261.524 97.9451 262.575 98.9947 262.575 100.29C262.575 101.585 261.524 102.635 260.229 102.635H214.846C213.551 102.635 212.502 101.585 212.502 100.29C212.502 98.9948 213.551 97.9452 214.846 97.9451Z" fill="#F3F3F3"/>
<path d="M214.846 97.9451H260.229C261.524 97.9451 262.575 98.9947 262.575 100.29C262.575 101.585 261.524 102.635 260.229 102.635H214.846C213.551 102.635 212.502 101.585 212.502 100.29C212.502 98.9948 213.551 97.9452 214.846 97.9451Z" stroke="#E6E6E6" stroke-width="0.616799"/>
</g>
<defs>
<filter id="filter0_dd_2054_1493" x="-6.05583e-05" y="9.15527e-05" width="277.766" height="85.5714" filterUnits="userSpaceOnUse" color-interpolation-filters="sRGB">
<feFlood flood-opacity="0" result="BackgroundImageFix"/>
<feColorMatrix in="SourceAlpha" type="matrix" values="0 0 0 0 0 0 0 0 0 0 0 0 0 0 0 0 0 0 127 0" result="hardAlpha"/>
<feMorphology radius="2.06494" operator="erode" in="SourceAlpha" result="effect1_dropShadow_2054_1493"/>
<feOffset dy="3.44156"/>
<feGaussianBlur stdDeviation="4.47403"/>
<feComposite in2="hardAlpha" operator="out"/>
<feColorMatrix type="matrix" values="0 0 0 0 0 0 0 0 0 0 0 0 0 0 0 0 0 0 0.1 0"/>
<feBlend mode="normal" in2="BackgroundImageFix" result="effect1_dropShadow_2054_1493"/>
<feColorMatrix in="SourceAlpha" type="matrix" values="0 0 0 0 0 0 0 0 0 0 0 0 0 0 0 0 0 0 127 0" result="hardAlpha"/>
<feMorphology radius="0.344156" operator="dilate" in="SourceAlpha" result="effect2_dropShadow_2054_1493"/>
<feOffset dy="0.344156"/>
<feComposite in2="hardAlpha" operator="out"/>
<feColorMatrix type="matrix" values="0 0 0 0 0 0 0 0 0 0 0 0 0 0 0 0 0 0 0.06 0"/>
<feBlend mode="normal" in2="effect1_dropShadow_2054_1493" result="effect2_dropShadow_2054_1493"/>
<feBlend mode="normal" in="SourceGraphic" in2="effect2_dropShadow_2054_1493" result="shape"/>
</filter>
<filter id="filter1_dd_2054_1493" x="92.7151" y="84.5525" width="92.336" height="37.6431" filterUnits="userSpaceOnUse" color-interpolation-filters="sRGB">
<feFlood flood-opacity="0" result="BackgroundImageFix"/>
<feColorMatrix in="SourceAlpha" type="matrix" values="0 0 0 0 0 0 0 0 0 0 0 0 0 0 0 0 0 0 127 0" result="hardAlpha"/>
<feMorphology radius="1.8504" operator="erode" in="SourceAlpha" result="effect1_dropShadow_2054_1493"/>
<feOffset dy="3.08399"/>
<feGaussianBlur stdDeviation="4.00919"/>
<feComposite in2="hardAlpha" operator="out"/>
<feColorMatrix type="matrix" values="0 0 0 0 0 0 0 0 0 0 0 0 0 0 0 0 0 0 0.1 0"/>
<feBlend mode="normal" in2="BackgroundImageFix" result="effect1_dropShadow_2054_1493"/>
<feColorMatrix in="SourceAlpha" type="matrix" values="0 0 0 0 0 0 0 0 0 0 0 0 0 0 0 0 0 0 127 0" result="hardAlpha"/>
<feMorphology radius="0.308399" operator="dilate" in="SourceAlpha" result="effect2_dropShadow_2054_1493"/>
<feOffset dy="0.308399"/>
<feComposite in2="hardAlpha" operator="out"/>
<feColorMatrix type="matrix" values="0 0 0 0 0 0 0 0 0 0 0 0 0 0 0 0 0 0 0.06 0"/>
<feBlend mode="normal" in2="effect1_dropShadow_2054_1493" result="effect2_dropShadow_2054_1493"/>
<feBlend mode="normal" in="SourceGraphic" in2="effect2_dropShadow_2054_1493" result="shape"/>
</filter>
<filter id="filter2_dd_2054_1493" x="184.715" y="84.5525" width="92.336" height="37.6431" filterUnits="userSpaceOnUse" color-interpolation-filters="sRGB">
<feFlood flood-opacity="0" result="BackgroundImageFix"/>
<feColorMatrix in="SourceAlpha" type="matrix" values="0 0 0 0 0 0 0 0 0 0 0 0 0 0 0 0 0 0 127 0" result="hardAlpha"/>
<feMorphology radius="1.8504" operator="erode" in="SourceAlpha" result="effect1_dropShadow_2054_1493"/>
<feOffset dy="3.08399"/>
<feGaussianBlur stdDeviation="4.00919"/>
<feComposite in2="hardAlpha" operator="out"/>
<feColorMatrix type="matrix" values="0 0 0 0 0 0 0 0 0 0 0 0 0 0 0 0 0 0 0.1 0"/>
<feBlend mode="normal" in2="BackgroundImageFix" result="effect1_dropShadow_2054_1493"/>
<feColorMatrix in="SourceAlpha" type="matrix" values="0 0 0 0 0 0 0 0 0 0 0 0 0 0 0 0 0 0 127 0" result="hardAlpha"/>
<feMorphology radius="0.308399" operator="dilate" in="SourceAlpha" result="effect2_dropShadow_2054_1493"/>
<feOffset dy="0.308399"/>
<feComposite in2="hardAlpha" operator="out"/>
<feColorMatrix type="matrix" values="0 0 0 0 0 0 0 0 0 0 0 0 0 0 0 0 0 0 0.06 0"/>
<feBlend mode="normal" in2="effect1_dropShadow_2054_1493" result="effect2_dropShadow_2054_1493"/>
<feBlend mode="normal" in="SourceGraphic" in2="effect2_dropShadow_2054_1493" result="shape"/>
</filter>
</defs>
</svg>
