<svg width="232" height="175" viewBox="0 0 232 175" fill="none" xmlns="http://www.w3.org/2000/svg">
<g filter="url(#filter0_dd_3136_186)">
<rect x="6.88312" y="3.44165" width="216" height="140.273" rx="12" fill="white"/>
<path d="M102.09 37.9143C102.09 35.4924 103.487 33.5491 105.762 33.0999C105.928 30.3167 108.614 28.4905 111.104 29.0374C112.422 27.1721 114.463 25.9417 116.992 25.9417C121.241 25.9417 124.502 29.1936 124.512 33.7053C126.494 34.467 127.676 36.2249 127.676 38.4514C127.676 41.0979 125.674 42.9241 122.53 42.9241H115.909V37.5823L115.752 36.1565L116.27 36.8499L117.461 38.1194C117.647 38.3245 117.91 38.4417 118.194 38.4417C118.711 38.4417 119.18 38.0608 119.18 37.5042C119.18 37.2209 119.063 37.0061 118.867 36.8108L115.674 33.7444C115.371 33.4514 115.078 33.344 114.776 33.344C114.473 33.344 114.18 33.4514 113.887 33.7444L110.684 36.8108C110.489 37.0061 110.381 37.2209 110.381 37.5042C110.381 38.0608 110.84 38.4417 111.358 38.4417C111.641 38.4417 111.905 38.3245 112.1 38.1194L113.291 36.8499L113.809 36.1467L113.653 37.5823V42.9241H115.909V46.5374C115.909 47.1331 115.41 47.6506 114.776 47.6506C114.151 47.6506 113.653 47.1331 113.653 46.5374V42.9241H107.569C104.239 42.9241 102.09 40.6877 102.09 37.9143Z" fill="#DBDBDB"/>
<path d="M83.2859 60.7854H146.48C147.847 60.7854 148.955 61.8936 148.955 63.26C148.955 64.6263 147.847 65.7336 146.48 65.7336H83.2859C81.9196 65.7336 80.8114 64.6263 80.8113 63.26C80.8113 61.8936 81.9195 60.7854 83.2859 60.7854Z" fill="#393939"/>
<path d="M83.2859 60.7854H146.48C147.847 60.7854 148.955 61.8936 148.955 63.26C148.955 64.6263 147.847 65.7336 146.48 65.7336H83.2859C81.9196 65.7336 80.8114 64.6263 80.8113 63.26C80.8113 61.8936 81.9195 60.7854 83.2859 60.7854Z" stroke="#333333" stroke-width="0.688312"/>
<path d="M75.2859 74.4219H154.48C155.847 74.4219 156.955 75.5301 156.955 76.8965C156.955 78.2628 155.847 79.3701 154.48 79.3701H75.2859C73.9196 79.3701 72.8114 78.2628 72.8113 76.8965C72.8113 75.5301 73.9195 74.4219 75.2859 74.4219Z" fill="#F3F3F3"/>
<path d="M75.2859 74.4219H154.48C155.847 74.4219 156.955 75.5301 156.955 76.8965C156.955 78.2628 155.847 79.3701 154.48 79.3701H75.2859C73.9196 79.3701 72.8114 78.2628 72.8113 76.8965C72.8113 75.5301 73.9195 74.4219 75.2859 74.4219Z" stroke="#E6E6E6" stroke-width="0.688312"/>
<g clip-path="url(#clip0_3136_186)">
<rect x="84.8831" y="96.7144" width="60" height="21" rx="10.5" fill="#F3F3F3"/>
<g filter="url(#filter1_dd_3136_186)">
<path d="M98.8831 107.214C98.8831 105.749 100.071 104.561 101.537 104.561H128.23C129.695 104.561 130.883 105.749 130.883 107.214C130.883 108.68 129.695 109.868 128.23 109.868H101.537C100.071 109.868 98.8831 108.68 98.8831 107.214Z" fill="white"/>
</g>
</g>
<rect x="85.1331" y="96.9644" width="59.5" height="20.5" rx="10.25" stroke="#E6E6E6" stroke-width="0.5"/>
<rect x="15.3831" y="12.2419" width="199" height="123" rx="7.5" stroke="#D8D8D8" stroke-linejoin="round" stroke-dasharray="3 4"/>
</g>
<g filter="url(#filter2_dd_3136_186)">
<path d="M177.55 117.572C177.55 114.212 177.55 112.532 178.204 111.248C178.779 110.119 179.697 109.201 180.826 108.626C182.109 107.972 183.789 107.972 187.15 107.972H203.55L210.55 114.972L217.55 121.972V154.372C217.55 157.732 217.55 159.413 216.896 160.696C216.321 161.825 215.403 162.743 214.274 163.318C212.99 163.972 211.31 163.972 207.95 163.972H187.15C183.789 163.972 182.109 163.972 180.826 163.318C179.697 162.743 178.779 161.825 178.204 160.696C177.55 159.413 177.55 157.732 177.55 154.372V117.572Z" fill="white"/>
<path d="M187.149 108.172H203.467L217.35 122.055V154.373C217.35 156.056 217.349 157.306 217.268 158.296C217.188 159.284 217.028 159.996 216.718 160.605C216.162 161.696 215.274 162.584 214.183 163.14C213.574 163.45 212.862 163.61 211.874 163.691C210.884 163.772 209.633 163.772 207.95 163.772H187.149C185.466 163.772 184.216 163.772 183.226 163.691C182.238 163.61 181.526 163.45 180.917 163.14C179.826 162.584 178.938 161.696 178.382 160.605C178.072 159.996 177.912 159.284 177.831 158.296C177.75 157.306 177.75 156.056 177.75 154.373V117.572C177.75 115.889 177.75 114.638 177.831 113.648C177.912 112.66 178.072 111.948 178.382 111.339C178.938 110.248 179.826 109.36 180.917 108.804C181.526 108.494 182.238 108.334 183.226 108.253C184.216 108.173 185.466 108.172 187.149 108.172Z" stroke="#EAEAEA" stroke-width="0.4"/>
</g>
<g filter="url(#filter3_i_3136_186)">
<path d="M186.818 155.972V147.517H190.304C192.086 147.517 193.275 148.666 193.275 150.406V150.417C193.275 152.158 192.086 153.306 190.304 153.306H188.587V155.972H186.818ZM189.871 148.917H188.587V151.923H189.871C190.884 151.923 191.482 151.384 191.482 150.423V150.412C191.482 149.451 190.884 148.917 189.871 148.917ZM194.544 155.972V147.517H197.872C200.386 147.517 201.839 149.035 201.839 151.683V151.695C201.839 154.425 200.403 155.972 197.872 155.972H194.544ZM196.313 154.513H197.591C199.155 154.513 200.034 153.529 200.034 151.724V151.712C200.034 149.972 199.126 148.976 197.591 148.976H196.313V154.513ZM203.16 155.972V147.517H208.698V148.976H204.93V151.244H208.369V152.644H204.93V155.972H203.16Z" fill="#E4E4E4"/>
</g>
<path d="M202.476 108.222C203.188 108.222 203.505 108.224 203.803 108.292C204.072 108.354 204.331 108.456 204.57 108.595C204.834 108.749 205.067 108.965 205.587 109.453L210.791 114.331L215.861 119.085C216.429 119.618 216.682 119.856 216.861 120.135C217.024 120.388 217.145 120.665 217.218 120.957C217.298 121.278 217.3 121.626 217.3 122.405V122.722H204.75C204.186 122.722 203.778 122.722 203.457 122.696C203.139 122.67 202.928 122.62 202.755 122.532C202.426 122.364 202.158 122.096 201.99 121.767C201.902 121.594 201.852 121.383 201.826 121.065C201.8 120.744 201.8 120.336 201.8 119.772V108.222H202.476Z" fill="#F4F4F4" stroke="#EAEAEA" stroke-width="0.5"/>
<path fill-rule="evenodd" clip-rule="evenodd" d="M223.269 130.528C222.917 130.271 222.525 130.171 222.092 130.23C221.884 130.258 221.712 130.319 221.569 130.404C221.574 130.245 221.562 130.094 221.526 129.952C221.451 129.655 221.311 129.411 221.106 129.219C220.901 129.027 220.655 128.889 220.368 128.804C220.108 128.726 219.843 128.703 219.573 128.736C219.302 128.769 219.06 128.861 218.845 129.014C218.775 129.064 218.723 129.128 218.667 129.189C218.628 129.12 218.592 129.049 218.537 128.985C218.371 128.793 218.16 128.645 217.903 128.541C217.646 128.437 217.373 128.384 217.087 128.384C216.794 128.384 216.518 128.437 216.262 128.541C216.005 128.645 215.793 128.793 215.627 128.985C215.573 129.047 215.539 129.117 215.499 129.185C215.462 129.143 215.431 129.095 215.388 129.058C215.212 128.908 215.005 128.806 214.767 128.75C214.53 128.695 214.291 128.687 214.05 128.726C213.744 128.771 213.469 128.886 213.224 129.068C212.98 129.25 212.8 129.496 212.682 129.805C212.573 130.094 212.56 130.436 212.627 130.819C212.057 130.749 211.527 130.915 211.042 131.328C210.541 131.755 210.293 132.427 210.3 133.345C210.306 134.829 210.588 136.147 211.144 137.3C211.701 138.452 212.484 139.353 213.493 140C214.502 140.648 215.671 140.972 216.999 140.972C218.21 140.972 219.245 140.759 220.105 140.332C220.964 139.906 221.66 139.289 222.19 138.481C222.72 137.675 223.106 136.675 223.347 135.483C223.477 134.853 223.579 134.233 223.655 133.628C223.73 133.022 223.774 132.382 223.786 131.704C223.793 131.177 223.62 130.785 223.269 130.528Z" fill="black"/>
<path fill-rule="evenodd" clip-rule="evenodd" d="M212.813 131.889L213.059 133.159C213.105 133.4 213.225 133.554 213.42 133.618C213.616 133.684 213.793 133.652 213.953 133.525C214.112 133.398 214.166 133.218 214.114 132.983L213.606 130.552C213.547 130.298 213.621 130.093 213.826 129.937C214.031 129.781 214.258 129.722 214.509 129.761C214.76 129.8 214.921 129.947 214.993 130.201L215.139 130.728C215.191 130.93 215.313 131.057 215.505 131.109C215.698 131.161 215.881 131.138 216.057 131.041C216.233 130.943 216.321 130.8 216.321 130.611V129.937C216.321 129.761 216.394 129.62 216.541 129.512C216.687 129.405 216.865 129.351 217.073 129.351C217.275 129.351 217.449 129.405 217.596 129.512C217.742 129.62 217.815 129.761 217.815 129.937V130.611C217.815 130.793 217.903 130.935 218.079 131.036C218.255 131.137 218.438 131.161 218.631 131.109C218.823 131.057 218.945 130.93 218.997 130.728L219.153 130.181C219.219 129.94 219.375 129.8 219.622 129.761C219.869 129.722 220.096 129.781 220.301 129.937C220.506 130.093 220.582 130.298 220.53 130.552L220.374 131.431C220.328 131.665 220.374 131.848 220.511 131.978C220.647 132.108 220.813 132.17 221.009 132.163C221.204 132.157 221.351 132.085 221.448 131.948L221.702 131.538C221.793 131.401 221.929 131.322 222.107 131.299C222.286 131.276 222.447 131.313 222.591 131.411C222.734 131.509 222.806 131.649 222.806 131.831C222.806 132.372 222.767 132.89 222.688 133.384C222.61 133.879 222.496 134.448 222.347 135.093L222.288 135.366C222.061 136.382 221.734 137.219 221.312 137.876C220.889 138.534 220.327 139.03 219.627 139.365C218.927 139.701 218.062 139.868 217.034 139.868C215.894 139.868 214.895 139.589 214.036 139.028C213.176 138.469 212.515 137.689 212.053 136.689C211.591 135.69 211.36 134.553 211.36 133.276C211.36 132.821 211.459 132.471 211.658 132.227C211.856 131.982 212.094 131.85 212.371 131.826C212.534 131.813 212.678 131.84 212.813 131.889Z" fill="white"/>
<defs>
<filter id="filter0_dd_3136_186" x="4.76837e-07" y="9.15527e-05" width="229.766" height="154.039" filterUnits="userSpaceOnUse" color-interpolation-filters="sRGB">
<feFlood flood-opacity="0" result="BackgroundImageFix"/>
<feColorMatrix in="SourceAlpha" type="matrix" values="0 0 0 0 0 0 0 0 0 0 0 0 0 0 0 0 0 0 127 0" result="hardAlpha"/>
<feMorphology radius="2.06494" operator="erode" in="SourceAlpha" result="effect1_dropShadow_3136_186"/>
<feOffset dy="3.44156"/>
<feGaussianBlur stdDeviation="4.47403"/>
<feComposite in2="hardAlpha" operator="out"/>
<feColorMatrix type="matrix" values="0 0 0 0 0 0 0 0 0 0 0 0 0 0 0 0 0 0 0.1 0"/>
<feBlend mode="normal" in2="BackgroundImageFix" result="effect1_dropShadow_3136_186"/>
<feColorMatrix in="SourceAlpha" type="matrix" values="0 0 0 0 0 0 0 0 0 0 0 0 0 0 0 0 0 0 127 0" result="hardAlpha"/>
<feMorphology radius="0.344156" operator="dilate" in="SourceAlpha" result="effect2_dropShadow_3136_186"/>
<feOffset dy="0.344156"/>
<feComposite in2="hardAlpha" operator="out"/>
<feColorMatrix type="matrix" values="0 0 0 0 0 0 0 0 0 0 0 0 0 0 0 0 0 0 0.06 0"/>
<feBlend mode="normal" in2="effect1_dropShadow_3136_186" result="effect2_dropShadow_3136_186"/>
<feBlend mode="normal" in="SourceGraphic" in2="effect2_dropShadow_3136_186" result="shape"/>
</filter>
<filter id="filter1_dd_3136_186" x="92.7151" y="101.477" width="44.336" height="17.6431" filterUnits="userSpaceOnUse" color-interpolation-filters="sRGB">
<feFlood flood-opacity="0" result="BackgroundImageFix"/>
<feColorMatrix in="SourceAlpha" type="matrix" values="0 0 0 0 0 0 0 0 0 0 0 0 0 0 0 0 0 0 127 0" result="hardAlpha"/>
<feMorphology radius="1.8504" operator="erode" in="SourceAlpha" result="effect1_dropShadow_3136_186"/>
<feOffset dy="3.08399"/>
<feGaussianBlur stdDeviation="4.00919"/>
<feComposite in2="hardAlpha" operator="out"/>
<feColorMatrix type="matrix" values="0 0 0 0 0 0 0 0 0 0 0 0 0 0 0 0 0 0 0.1 0"/>
<feBlend mode="normal" in2="BackgroundImageFix" result="effect1_dropShadow_3136_186"/>
<feColorMatrix in="SourceAlpha" type="matrix" values="0 0 0 0 0 0 0 0 0 0 0 0 0 0 0 0 0 0 127 0" result="hardAlpha"/>
<feMorphology radius="0.308399" operator="dilate" in="SourceAlpha" result="effect2_dropShadow_3136_186"/>
<feOffset dy="0.308399"/>
<feComposite in2="hardAlpha" operator="out"/>
<feColorMatrix type="matrix" values="0 0 0 0 0 0 0 0 0 0 0 0 0 0 0 0 0 0 0.06 0"/>
<feBlend mode="normal" in2="effect1_dropShadow_3136_186" result="effect2_dropShadow_3136_186"/>
<feBlend mode="normal" in="SourceGraphic" in2="effect2_dropShadow_3136_186" result="shape"/>
</filter>
<filter id="filter2_dd_3136_186" x="170.667" y="104.531" width="53.7662" height="69.7662" filterUnits="userSpaceOnUse" color-interpolation-filters="sRGB">
<feFlood flood-opacity="0" result="BackgroundImageFix"/>
<feColorMatrix in="SourceAlpha" type="matrix" values="0 0 0 0 0 0 0 0 0 0 0 0 0 0 0 0 0 0 127 0" result="hardAlpha"/>
<feMorphology radius="2.06494" operator="erode" in="SourceAlpha" result="effect1_dropShadow_3136_186"/>
<feOffset dy="3.44156"/>
<feGaussianBlur stdDeviation="4.47403"/>
<feComposite in2="hardAlpha" operator="out"/>
<feColorMatrix type="matrix" values="0 0 0 0 0 0 0 0 0 0 0 0 0 0 0 0 0 0 0.1 0"/>
<feBlend mode="normal" in2="BackgroundImageFix" result="effect1_dropShadow_3136_186"/>
<feColorMatrix in="SourceAlpha" type="matrix" values="0 0 0 0 0 0 0 0 0 0 0 0 0 0 0 0 0 0 127 0" result="hardAlpha"/>
<feMorphology radius="0.344156" operator="dilate" in="SourceAlpha" result="effect2_dropShadow_3136_186"/>
<feOffset dy="0.344156"/>
<feComposite in2="hardAlpha" operator="out"/>
<feColorMatrix type="matrix" values="0 0 0 0 0 0 0 0 0 0 0 0 0 0 0 0 0 0 0.06 0"/>
<feBlend mode="normal" in2="effect1_dropShadow_3136_186" result="effect2_dropShadow_3136_186"/>
<feBlend mode="normal" in="SourceGraphic" in2="effect2_dropShadow_3136_186" result="shape"/>
</filter>
<filter id="filter3_i_3136_186" x="186.818" y="147.517" width="21.8796" height="9.15508" filterUnits="userSpaceOnUse" color-interpolation-filters="sRGB">
<feFlood flood-opacity="0" result="BackgroundImageFix"/>
<feBlend mode="normal" in="SourceGraphic" in2="BackgroundImageFix" result="shape"/>
<feColorMatrix in="SourceAlpha" type="matrix" values="0 0 0 0 0 0 0 0 0 0 0 0 0 0 0 0 0 0 127 0" result="hardAlpha"/>
<feOffset dy="0.7"/>
<feGaussianBlur stdDeviation="0.5"/>
<feComposite in2="hardAlpha" operator="arithmetic" k2="-1" k3="1"/>
<feColorMatrix type="matrix" values="0 0 0 0 0 0 0 0 0 0 0 0 0 0 0 0 0 0 0.12 0"/>
<feBlend mode="normal" in2="shape" result="effect1_innerShadow_3136_186"/>
</filter>
<clipPath id="clip0_3136_186">
<rect x="84.8831" y="96.7144" width="60" height="21" rx="10.5" fill="white"/>
</clipPath>
</defs>
</svg>
