<svg width="290" height="108" viewBox="0 0 290 108" fill="none" xmlns="http://www.w3.org/2000/svg">
<g filter="url(#filter0_dd_2054_1656)">
<path d="M6.88306 18.8598C6.88306 13.463 6.88306 10.7645 7.93336 8.7032C8.85723 6.89 10.3314 5.41582 12.1446 4.49195C14.2059 3.44165 16.9044 3.44165 22.3012 3.44165H266.997C272.394 3.44165 275.093 3.44165 277.154 4.49195C278.967 5.41582 280.441 6.89 281.365 8.7032C282.416 10.7645 282.416 13.463 282.416 18.8598V81.5559C282.416 86.9528 282.416 89.6512 281.365 91.7126C280.441 93.5258 278.967 94.9999 277.154 95.9238C275.093 96.9741 272.394 96.9741 266.997 96.9741H22.3012C16.9044 96.9741 14.2059 96.9741 12.1446 95.9238C10.3314 94.9999 8.85723 93.5258 7.93336 91.7126C6.88306 89.6512 6.88306 86.9528 6.88306 81.5559V18.8598Z" fill="white"/>
<path d="M27.1493 43.2293L31.9742 36.1069C36.4784 29.4579 45.9703 28.6636 51.5168 34.4717C56.1752 39.3496 63.8489 39.6936 68.925 35.252L71.8474 32.695" stroke="#DCDCDC" stroke-width="3" stroke-linecap="round" stroke-linejoin="round"/>
<path d="M23.6493 63.5515H45.6493C47.1161 63.5515 48.3055 64.741 48.3055 66.2078C48.3055 67.6745 47.1161 68.864 45.6493 68.864H23.6493C22.1825 68.864 20.993 67.6745 20.993 66.2078C20.993 64.741 22.1825 63.5515 23.6493 63.5515Z" fill="#393939"/>
<path d="M23.6493 63.5515H45.6493C47.1161 63.5515 48.3055 64.741 48.3055 66.2078C48.3055 67.6745 47.1161 68.864 45.6493 68.864H23.6493C22.1825 68.864 20.993 67.6745 20.993 66.2078C20.993 64.741 22.1825 63.5515 23.6493 63.5515Z" stroke="#333333" stroke-width="0.688312"/>
<path d="M23.6493 77.5515H75.6493C77.1161 77.5515 78.3055 78.741 78.3055 80.2078C78.3055 81.6745 77.1161 82.864 75.6493 82.864H23.6493C22.1825 82.864 20.993 81.6745 20.993 80.2078C20.993 78.741 22.1825 77.5515 23.6493 77.5515Z" fill="#F3F3F3"/>
<path d="M23.6493 77.5515H75.6493C77.1161 77.5515 78.3055 78.741 78.3055 80.2078C78.3055 81.6745 77.1161 82.864 75.6493 82.864H23.6493C22.1825 82.864 20.993 81.6745 20.993 80.2078C20.993 78.741 22.1825 77.5515 23.6493 77.5515Z" stroke="#E6E6E6" stroke-width="0.688312"/>
<path d="M97.1493 24.2078C97.4254 24.2078 97.6493 24.4316 97.6493 24.7078L97.6493 75.7078C97.6493 75.9839 97.4254 76.2078 97.1493 76.2078C96.8731 76.2078 96.6493 75.9839 96.6493 75.7078L96.6493 24.7078C96.6493 24.4316 96.8732 24.2078 97.1493 24.2078Z" fill="#F5F5F5"/>
<path d="M122.149 43.2294L134.293 33.35C137.725 30.558 142.806 31.2707 145.338 34.8992C148.242 39.0627 154.332 39.2692 157.512 35.312L166.847 23.6951" stroke="#DCDCDC" stroke-width="3" stroke-linecap="round" stroke-linejoin="round"/>
<path d="M118.649 63.5515H170.649C172.116 63.5515 173.306 64.741 173.306 66.2078C173.306 67.6745 172.116 68.864 170.649 68.864H118.649C117.183 68.864 115.993 67.6745 115.993 66.2078C115.993 64.741 117.183 63.5515 118.649 63.5515Z" fill="#393939"/>
<path d="M118.649 63.5515H170.649C172.116 63.5515 173.306 64.741 173.306 66.2078C173.306 67.6745 172.116 68.864 170.649 68.864H118.649C117.183 68.864 115.993 67.6745 115.993 66.2078C115.993 64.741 117.183 63.5515 118.649 63.5515Z" stroke="#333333" stroke-width="0.688312"/>
<path d="M118.649 77.5515H152.649C154.116 77.5515 155.306 78.741 155.306 80.2078C155.306 81.6745 154.116 82.864 152.649 82.864H118.649C117.183 82.864 115.993 81.6745 115.993 80.2078C115.993 78.741 117.183 77.5515 118.649 77.5515Z" fill="#F3F3F3"/>
<path d="M118.649 77.5515H152.649C154.116 77.5515 155.306 78.741 155.306 80.2078C155.306 81.6745 154.116 82.864 152.649 82.864H118.649C117.183 82.864 115.993 81.6745 115.993 80.2078C115.993 78.741 117.183 77.5515 118.649 77.5515Z" stroke="#E6E6E6" stroke-width="0.688312"/>
<path d="M192.149 24.2078C192.425 24.2078 192.649 24.4316 192.649 24.7078L192.649 75.7078C192.649 75.9839 192.425 76.2078 192.149 76.2078C191.873 76.2078 191.649 75.9839 191.649 75.7078L191.649 24.7078C191.649 24.4316 191.873 24.2078 192.149 24.2078Z" fill="#F5F5F5"/>
<path d="M256.149 36.679C251.208 39.5857 244.901 38.5978 241.085 34.3193L236.807 29.5225C233.208 25.4867 228.057 23.179 222.649 23.179" stroke="#DCDCDC" stroke-width="3" stroke-linecap="round" stroke-linejoin="round"/>
<path d="M213.649 63.5515H245.649C247.116 63.5515 248.306 64.741 248.306 66.2078C248.306 67.6745 247.116 68.864 245.649 68.864H213.649C212.183 68.864 210.993 67.6745 210.993 66.2078C210.993 64.741 212.183 63.5515 213.649 63.5515Z" fill="#393939"/>
<path d="M213.649 63.5515H245.649C247.116 63.5515 248.306 64.741 248.306 66.2078C248.306 67.6745 247.116 68.864 245.649 68.864H213.649C212.183 68.864 210.993 67.6745 210.993 66.2078C210.993 64.741 212.183 63.5515 213.649 63.5515Z" stroke="#333333" stroke-width="0.688312"/>
<path d="M213.649 77.5515H265.649C267.116 77.5515 268.306 78.741 268.306 80.2078C268.306 81.6745 267.116 82.864 265.649 82.864H213.649C212.183 82.864 210.993 81.6745 210.993 80.2078C210.993 78.741 212.183 77.5515 213.649 77.5515Z" fill="#F3F3F3"/>
<path d="M213.649 77.5515H265.649C267.116 77.5515 268.306 78.741 268.306 80.2078C268.306 81.6745 267.116 82.864 265.649 82.864H213.649C212.183 82.864 210.993 81.6745 210.993 80.2078C210.993 78.741 212.183 77.5515 213.649 77.5515Z" stroke="#E6E6E6" stroke-width="0.688312"/>
</g>
<defs>
<filter id="filter0_dd_2054_1656" x="-6.05583e-05" y="9.15527e-05" width="289.299" height="107.298" filterUnits="userSpaceOnUse" color-interpolation-filters="sRGB">
<feFlood flood-opacity="0" result="BackgroundImageFix"/>
<feColorMatrix in="SourceAlpha" type="matrix" values="0 0 0 0 0 0 0 0 0 0 0 0 0 0 0 0 0 0 127 0" result="hardAlpha"/>
<feMorphology radius="2.06494" operator="erode" in="SourceAlpha" result="effect1_dropShadow_2054_1656"/>
<feOffset dy="3.44156"/>
<feGaussianBlur stdDeviation="4.47403"/>
<feComposite in2="hardAlpha" operator="out"/>
<feColorMatrix type="matrix" values="0 0 0 0 0 0 0 0 0 0 0 0 0 0 0 0 0 0 0.1 0"/>
<feBlend mode="normal" in2="BackgroundImageFix" result="effect1_dropShadow_2054_1656"/>
<feColorMatrix in="SourceAlpha" type="matrix" values="0 0 0 0 0 0 0 0 0 0 0 0 0 0 0 0 0 0 127 0" result="hardAlpha"/>
<feMorphology radius="0.344156" operator="dilate" in="SourceAlpha" result="effect2_dropShadow_2054_1656"/>
<feOffset dy="0.344156"/>
<feComposite in2="hardAlpha" operator="out"/>
<feColorMatrix type="matrix" values="0 0 0 0 0 0 0 0 0 0 0 0 0 0 0 0 0 0 0.06 0"/>
<feBlend mode="normal" in2="effect1_dropShadow_2054_1656" result="effect2_dropShadow_2054_1656"/>
<feBlend mode="normal" in="SourceGraphic" in2="effect2_dropShadow_2054_1656" result="shape"/>
</filter>
</defs>
</svg>
