<svg width="292" height="248" viewBox="0 0 292 248" fill="none" xmlns="http://www.w3.org/2000/svg">
<g clip-path="url(#clip0_2054_1674)">
<rect width="310" height="248" rx="14" fill="#F8F8F8"/>
<rect x="18.3084" y="16.3084" width="11.3832" height="11.3832" rx="3.6916" fill="white"/>
<rect x="18.3084" y="16.3084" width="11.3832" height="11.3832" rx="3.6916" stroke="#E6E6E6" stroke-width="0.616799"/>
<path d="M41 22C41 20.8954 41.8954 20 43 20H91C92.1046 20 93 20.8954 93 22C93 23.1046 92.1046 24 91 24H43C41.8954 24 41 23.1046 41 22Z" fill="#DADADA"/>
<path d="M145 22C145 20.8954 145.895 20 147 20H175C176.105 20 177 20.8954 177 22C177 23.1046 176.105 24 175 24H147C145.895 24 145 23.1046 145 22Z" fill="#DADADA"/>
<path d="M222 22C222 20.8954 222.895 20 224 20H239C240.105 20 241 20.8954 241 22C241 23.1046 240.105 24 239 24H224C222.895 24 222 23.1046 222 22Z" fill="#DADADA"/>
<g filter="url(#filter0_dd_2054_1674)">
<path d="M10 55.5C10 50.0486 10 47.3229 11.0503 45.2615C11.9742 43.4483 13.4483 41.9742 15.2615 41.0503C17.3229 40 20.0213 40 25.4182 40H307.049C312.446 40 315.145 40 317.206 41.0503C319.019 41.9742 320.493 43.4483 321.417 45.2615C322.468 47.3229 322.468 50.0486 322.468 55.5C322.468 60.9514 322.468 63.6771 321.417 65.7385C320.493 67.5517 319.019 69.0258 317.206 69.9497C315.145 71 312.446 71 307.049 71H25.4182C20.0213 71 17.3229 71 15.2615 69.9497C13.4483 69.0258 11.9742 67.5517 11.0503 65.7385C10 63.6771 10 60.9514 10 55.5Z" fill="white"/>
<rect x="18.3084" y="49.8084" width="11.3832" height="11.3832" rx="3.6916" fill="#F3F3F3"/>
<rect x="18.3084" y="49.8084" width="11.3832" height="11.3832" rx="3.6916" stroke="#E6E6E6" stroke-width="0.616799"/>
<path d="M46.5 63C42.3594 63 39 59.6406 39 55.5C39 51.3594 42.3594 48 46.5 48C50.6406 48 54 51.3594 54 55.5C54 59.6406 50.6406 63 46.5 63ZM46.5 56.5795C47.9276 56.5938 49.0284 55.3651 49.0284 53.8168C49.0284 52.3537 47.9134 51.1037 46.5 51.1037C45.0866 51.1037 43.9645 52.3537 43.9716 53.8168C43.9716 55.3651 45.0724 56.5724 46.5 56.5795ZM46.5 61.5724C48.0199 61.5724 49.7812 60.9403 50.8253 59.7898C49.9304 58.5256 48.375 57.8438 46.5 57.8438C44.6037 57.8438 43.0554 58.5398 42.1747 59.7898C43.2188 60.9403 44.9801 61.5724 46.5 61.5724Z" fill="#DBDBDB"/>
<path d="M65 52.8438H118C119.467 52.8438 120.656 54.0332 120.656 55.5C120.656 56.9668 119.467 58.1562 118 58.1562H65C63.5332 58.1562 62.3438 56.9668 62.3438 55.5C62.3438 54.0332 63.5332 52.8438 65 52.8438Z" fill="#F3F3F3"/>
<path d="M65 52.8438H118C119.467 52.8438 120.656 54.0332 120.656 55.5C120.656 56.9668 119.467 58.1562 118 58.1562H65C63.5332 58.1562 62.3438 56.9668 62.3438 55.5C62.3438 54.0332 63.5332 52.8438 65 52.8438Z" stroke="#E6E6E6" stroke-width="0.688312"/>
<path d="M142 52.8438H195C196.467 52.8438 197.656 54.0332 197.656 55.5C197.656 56.9668 196.467 58.1562 195 58.1562H142C140.533 58.1562 139.344 56.9668 139.344 55.5C139.344 54.0332 140.533 52.8438 142 52.8438Z" fill="#F3F3F3"/>
<path d="M142 52.8438H195C196.467 52.8438 197.656 54.0332 197.656 55.5C197.656 56.9668 196.467 58.1562 195 58.1562H142C140.533 58.1562 139.344 56.9668 139.344 55.5C139.344 54.0332 140.533 52.8438 142 52.8438Z" stroke="#E6E6E6" stroke-width="0.688312"/>
<path d="M219 52.8438H272C273.467 52.8438 274.656 54.0332 274.656 55.5C274.656 56.9668 273.467 58.1562 272 58.1562H219C217.533 58.1562 216.344 56.9668 216.344 55.5C216.344 54.0332 217.533 52.8438 219 52.8438Z" fill="#F3F3F3"/>
<path d="M219 52.8438H272C273.467 52.8438 274.656 54.0332 274.656 55.5C274.656 56.9668 273.467 58.1562 272 58.1562H219C217.533 58.1562 216.344 56.9668 216.344 55.5C216.344 54.0332 217.533 52.8438 219 52.8438Z" stroke="#E6E6E6" stroke-width="0.688312"/>
</g>
<path d="M10 98.5C10 93.0486 10 90.3229 11.0503 88.2615C11.9742 86.4483 13.4483 84.9742 15.2615 84.0503C17.3229 83 20.0213 83 25.4182 83H307.049C312.446 83 315.145 83 317.206 84.0503C319.019 84.9742 320.493 86.4483 321.417 88.2615C322.468 90.3229 322.468 93.0486 322.468 98.5C322.468 103.951 322.468 106.677 321.417 108.738C320.493 110.552 319.019 112.026 317.206 112.95C315.145 114 312.446 114 307.049 114H25.4182C20.0213 114 17.3229 114 15.2615 112.95C13.4483 112.026 11.9742 110.552 11.0503 108.738C10 106.677 10 103.951 10 98.5Z" fill="white"/>
<rect x="18.3084" y="92.8084" width="11.3832" height="11.3832" rx="3.6916" fill="#F3F3F3"/>
<rect x="18.3084" y="92.8084" width="11.3832" height="11.3832" rx="3.6916" stroke="#E6E6E6" stroke-width="0.616799"/>
<path d="M46.5 106C42.3594 106 39 102.641 39 98.5C39 94.3594 42.3594 91 46.5 91C50.6406 91 54 94.3594 54 98.5C54 102.641 50.6406 106 46.5 106ZM46.5 99.5795C47.9276 99.5938 49.0284 98.3651 49.0284 96.8168C49.0284 95.3537 47.9134 94.1037 46.5 94.1037C45.0866 94.1037 43.9645 95.3537 43.9716 96.8168C43.9716 98.3651 45.0724 99.5724 46.5 99.5795ZM46.5 104.572C48.0199 104.572 49.7812 103.94 50.8253 102.79C49.9304 101.526 48.375 100.844 46.5 100.844C44.6037 100.844 43.0554 101.54 42.1747 102.79C43.2188 103.94 44.9801 104.572 46.5 104.572Z" fill="#DBDBDB"/>
<path d="M61 95.8438H114C115.467 95.8438 116.656 97.0332 116.656 98.5C116.656 99.9668 115.467 101.156 114 101.156H61C59.5332 101.156 58.3438 99.9668 58.3438 98.5C58.3438 97.0332 59.5332 95.8438 61 95.8438Z" fill="#F3F3F3"/>
<path d="M61 95.8438H114C115.467 95.8438 116.656 97.0332 116.656 98.5C116.656 99.9668 115.467 101.156 114 101.156H61C59.5332 101.156 58.3438 99.9668 58.3438 98.5C58.3438 97.0332 59.5332 95.8438 61 95.8438Z" stroke="#E6E6E6" stroke-width="0.688312"/>
<path d="M138 95.8438H191C192.467 95.8438 193.656 97.0332 193.656 98.5C193.656 99.9668 192.467 101.156 191 101.156H138C136.533 101.156 135.344 99.9668 135.344 98.5C135.344 97.0332 136.533 95.8438 138 95.8438Z" fill="#F3F3F3"/>
<path d="M138 95.8438H191C192.467 95.8438 193.656 97.0332 193.656 98.5C193.656 99.9668 192.467 101.156 191 101.156H138C136.533 101.156 135.344 99.9668 135.344 98.5C135.344 97.0332 136.533 95.8438 138 95.8438Z" stroke="#E6E6E6" stroke-width="0.688312"/>
<path d="M215 95.8438H268C269.467 95.8438 270.656 97.0332 270.656 98.5C270.656 99.9668 269.467 101.156 268 101.156H215C213.533 101.156 212.344 99.9668 212.344 98.5C212.344 97.0332 213.533 95.8438 215 95.8438Z" fill="#F3F3F3"/>
<path d="M215 95.8438H268C269.467 95.8438 270.656 97.0332 270.656 98.5C270.656 99.9668 269.467 101.156 268 101.156H215C213.533 101.156 212.344 99.9668 212.344 98.5C212.344 97.0332 213.533 95.8438 215 95.8438Z" stroke="#E6E6E6" stroke-width="0.688312"/>
<path d="M10 141.5C10 136.049 10 133.323 11.0503 131.262C11.9742 129.448 13.4483 127.974 15.2615 127.05C17.3229 126 20.0213 126 25.4182 126H307.049C312.446 126 315.145 126 317.206 127.05C319.019 127.974 320.493 129.448 321.417 131.262C322.468 133.323 322.468 136.049 322.468 141.5C322.468 146.951 322.468 149.677 321.417 151.738C320.493 153.552 319.019 155.026 317.206 155.95C315.145 157 312.446 157 307.049 157H25.4182C20.0213 157 17.3229 157 15.2615 155.95C13.4483 155.026 11.9742 153.552 11.0503 151.738C10 149.677 10 146.951 10 141.5Z" fill="white"/>
<rect x="18.3084" y="135.808" width="11.3832" height="11.3832" rx="3.6916" fill="#F3F3F3"/>
<rect x="18.3084" y="135.808" width="11.3832" height="11.3832" rx="3.6916" stroke="#E6E6E6" stroke-width="0.616799"/>
<path d="M46.5 149C42.3594 149 39 145.641 39 141.5C39 137.359 42.3594 134 46.5 134C50.6406 134 54 137.359 54 141.5C54 145.641 50.6406 149 46.5 149ZM46.5 142.58C47.9276 142.594 49.0284 141.365 49.0284 139.817C49.0284 138.354 47.9134 137.104 46.5 137.104C45.0866 137.104 43.9645 138.354 43.9716 139.817C43.9716 141.365 45.0724 142.572 46.5 142.58ZM46.5 147.572C48.0199 147.572 49.7812 146.94 50.8253 145.79C49.9304 144.526 48.375 143.844 46.5 143.844C44.6037 143.844 43.0554 144.54 42.1747 145.79C43.2188 146.94 44.9801 147.572 46.5 147.572Z" fill="#DBDBDB"/>
<path d="M61 138.844H114C115.467 138.844 116.656 140.033 116.656 141.5C116.656 142.967 115.467 144.156 114 144.156H61C59.5332 144.156 58.3438 142.967 58.3438 141.5C58.3438 140.033 59.5332 138.844 61 138.844Z" fill="#F3F3F3"/>
<path d="M61 138.844H114C115.467 138.844 116.656 140.033 116.656 141.5C116.656 142.967 115.467 144.156 114 144.156H61C59.5332 144.156 58.3438 142.967 58.3438 141.5C58.3438 140.033 59.5332 138.844 61 138.844Z" stroke="#E6E6E6" stroke-width="0.688312"/>
<path d="M138 138.844H191C192.467 138.844 193.656 140.033 193.656 141.5C193.656 142.967 192.467 144.156 191 144.156H138C136.533 144.156 135.344 142.967 135.344 141.5C135.344 140.033 136.533 138.844 138 138.844Z" fill="#F3F3F3"/>
<path d="M138 138.844H191C192.467 138.844 193.656 140.033 193.656 141.5C193.656 142.967 192.467 144.156 191 144.156H138C136.533 144.156 135.344 142.967 135.344 141.5C135.344 140.033 136.533 138.844 138 138.844Z" stroke="#E6E6E6" stroke-width="0.688312"/>
<path d="M215 138.844H268C269.467 138.844 270.656 140.033 270.656 141.5C270.656 142.967 269.467 144.156 268 144.156H215C213.533 144.156 212.344 142.967 212.344 141.5C212.344 140.033 213.533 138.844 215 138.844Z" fill="#F3F3F3"/>
<path d="M215 138.844H268C269.467 138.844 270.656 140.033 270.656 141.5C270.656 142.967 269.467 144.156 268 144.156H215C213.533 144.156 212.344 142.967 212.344 141.5C212.344 140.033 213.533 138.844 215 138.844Z" stroke="#E6E6E6" stroke-width="0.688312"/>
<path d="M10 184.5C10 179.049 10 176.323 11.0503 174.262C11.9742 172.448 13.4483 170.974 15.2615 170.05C17.3229 169 20.0213 169 25.4182 169H307.049C312.446 169 315.145 169 317.206 170.05C319.019 170.974 320.493 172.448 321.417 174.262C322.468 176.323 322.468 179.049 322.468 184.5C322.468 189.951 322.468 192.677 321.417 194.738C320.493 196.552 319.019 198.026 317.206 198.95C315.145 200 312.446 200 307.049 200H25.4182C20.0213 200 17.3229 200 15.2615 198.95C13.4483 198.026 11.9742 196.552 11.0503 194.738C10 192.677 10 189.951 10 184.5Z" fill="white"/>
<rect x="18.3084" y="178.808" width="11.3832" height="11.3832" rx="3.6916" fill="#F3F3F3"/>
<rect x="18.3084" y="178.808" width="11.3832" height="11.3832" rx="3.6916" stroke="#E6E6E6" stroke-width="0.616799"/>
<path d="M46.5 192C42.3594 192 39 188.641 39 184.5C39 180.359 42.3594 177 46.5 177C50.6406 177 54 180.359 54 184.5C54 188.641 50.6406 192 46.5 192ZM46.5 185.58C47.9276 185.594 49.0284 184.365 49.0284 182.817C49.0284 181.354 47.9134 180.104 46.5 180.104C45.0866 180.104 43.9645 181.354 43.9716 182.817C43.9716 184.365 45.0724 185.572 46.5 185.58ZM46.5 190.572C48.0199 190.572 49.7812 189.94 50.8253 188.79C49.9304 187.526 48.375 186.844 46.5 186.844C44.6037 186.844 43.0554 187.54 42.1747 188.79C43.2188 189.94 44.9801 190.572 46.5 190.572Z" fill="#DBDBDB"/>
<path d="M61 181.844H114C115.467 181.844 116.656 183.033 116.656 184.5C116.656 185.967 115.467 187.156 114 187.156H61C59.5332 187.156 58.3438 185.967 58.3438 184.5C58.3438 183.033 59.5332 181.844 61 181.844Z" fill="#F3F3F3"/>
<path d="M61 181.844H114C115.467 181.844 116.656 183.033 116.656 184.5C116.656 185.967 115.467 187.156 114 187.156H61C59.5332 187.156 58.3438 185.967 58.3438 184.5C58.3438 183.033 59.5332 181.844 61 181.844Z" stroke="#E6E6E6" stroke-width="0.688312"/>
<path d="M138 181.844H191C192.467 181.844 193.656 183.033 193.656 184.5C193.656 185.967 192.467 187.156 191 187.156H138C136.533 187.156 135.344 185.967 135.344 184.5C135.344 183.033 136.533 181.844 138 181.844Z" fill="#F3F3F3"/>
<path d="M138 181.844H191C192.467 181.844 193.656 183.033 193.656 184.5C193.656 185.967 192.467 187.156 191 187.156H138C136.533 187.156 135.344 185.967 135.344 184.5C135.344 183.033 136.533 181.844 138 181.844Z" stroke="#E6E6E6" stroke-width="0.688312"/>
<path d="M215 181.844H268C269.467 181.844 270.656 183.033 270.656 184.5C270.656 185.967 269.467 187.156 268 187.156H215C213.533 187.156 212.344 185.967 212.344 184.5C212.344 183.033 213.533 181.844 215 181.844Z" fill="#F3F3F3"/>
<path d="M215 181.844H268C269.467 181.844 270.656 183.033 270.656 184.5C270.656 185.967 269.467 187.156 268 187.156H215C213.533 187.156 212.344 185.967 212.344 184.5C212.344 183.033 213.533 181.844 215 181.844Z" stroke="#E6E6E6" stroke-width="0.688312"/>
<path d="M10 227.5C10 222.049 10 219.323 11.0503 217.262C11.9742 215.448 13.4483 213.974 15.2615 213.05C17.3229 212 20.0213 212 25.4182 212H307.049C312.446 212 315.145 212 317.206 213.05C319.019 213.974 320.493 215.448 321.417 217.262C322.468 219.323 322.468 222.049 322.468 227.5C322.468 232.951 322.468 235.677 321.417 237.738C320.493 239.552 319.019 241.026 317.206 241.95C315.145 243 312.446 243 307.049 243H25.4182C20.0213 243 17.3229 243 15.2615 241.95C13.4483 241.026 11.9742 239.552 11.0503 237.738C10 235.677 10 232.951 10 227.5Z" fill="white"/>
<rect x="18.3084" y="221.808" width="11.3832" height="11.3832" rx="3.6916" fill="#F3F3F3"/>
<rect x="18.3084" y="221.808" width="11.3832" height="11.3832" rx="3.6916" stroke="#E6E6E6" stroke-width="0.616799"/>
<path d="M46.5 235C42.3594 235 39 231.641 39 227.5C39 223.359 42.3594 220 46.5 220C50.6406 220 54 223.359 54 227.5C54 231.641 50.6406 235 46.5 235ZM46.5 228.58C47.9276 228.594 49.0284 227.365 49.0284 225.817C49.0284 224.354 47.9134 223.104 46.5 223.104C45.0866 223.104 43.9645 224.354 43.9716 225.817C43.9716 227.365 45.0724 228.572 46.5 228.58ZM46.5 233.572C48.0199 233.572 49.7813 232.94 50.8253 231.79C49.9304 230.526 48.375 229.844 46.5 229.844C44.6037 229.844 43.0554 230.54 42.1747 231.79C43.2188 232.94 44.9801 233.572 46.5 233.572Z" fill="#DBDBDB"/>
<path d="M61 224.844H114C115.467 224.844 116.656 226.033 116.656 227.5C116.656 228.967 115.467 230.156 114 230.156H61C59.5332 230.156 58.3438 228.967 58.3438 227.5C58.3438 226.033 59.5332 224.844 61 224.844Z" fill="#F3F3F3"/>
<path d="M61 224.844H114C115.467 224.844 116.656 226.033 116.656 227.5C116.656 228.967 115.467 230.156 114 230.156H61C59.5332 230.156 58.3438 228.967 58.3438 227.5C58.3438 226.033 59.5332 224.844 61 224.844Z" stroke="#E6E6E6" stroke-width="0.688312"/>
<path d="M138 224.844H191C192.467 224.844 193.656 226.033 193.656 227.5C193.656 228.967 192.467 230.156 191 230.156H138C136.533 230.156 135.344 228.967 135.344 227.5C135.344 226.033 136.533 224.844 138 224.844Z" fill="#F3F3F3"/>
<path d="M138 224.844H191C192.467 224.844 193.656 226.033 193.656 227.5C193.656 228.967 192.467 230.156 191 230.156H138C136.533 230.156 135.344 228.967 135.344 227.5C135.344 226.033 136.533 224.844 138 224.844Z" stroke="#E6E6E6" stroke-width="0.688312"/>
<path d="M215 224.844H268C269.467 224.844 270.656 226.033 270.656 227.5C270.656 228.967 269.467 230.156 268 230.156H215C213.533 230.156 212.344 228.967 212.344 227.5C212.344 226.033 213.533 224.844 215 224.844Z" fill="#F3F3F3"/>
<path d="M215 224.844H268C269.467 224.844 270.656 226.033 270.656 227.5C270.656 228.967 269.467 230.156 268 230.156H215C213.533 230.156 212.344 228.967 212.344 227.5C212.344 226.033 213.533 224.844 215 224.844Z" stroke="#E6E6E6" stroke-width="0.688312"/>
</g>
<rect x="0.5" y="0.5" width="309" height="247" rx="13.5" stroke="#EAEAEA"/>
<defs>
<filter id="filter0_dd_2054_1674" x="3.11688" y="36.5584" width="326.234" height="44.7662" filterUnits="userSpaceOnUse" color-interpolation-filters="sRGB">
<feFlood flood-opacity="0" result="BackgroundImageFix"/>
<feColorMatrix in="SourceAlpha" type="matrix" values="0 0 0 0 0 0 0 0 0 0 0 0 0 0 0 0 0 0 127 0" result="hardAlpha"/>
<feMorphology radius="2.06494" operator="erode" in="SourceAlpha" result="effect1_dropShadow_2054_1674"/>
<feOffset dy="3.44156"/>
<feGaussianBlur stdDeviation="4.47403"/>
<feComposite in2="hardAlpha" operator="out"/>
<feColorMatrix type="matrix" values="0 0 0 0 0 0 0 0 0 0 0 0 0 0 0 0 0 0 0.1 0"/>
<feBlend mode="normal" in2="BackgroundImageFix" result="effect1_dropShadow_2054_1674"/>
<feColorMatrix in="SourceAlpha" type="matrix" values="0 0 0 0 0 0 0 0 0 0 0 0 0 0 0 0 0 0 127 0" result="hardAlpha"/>
<feMorphology radius="0.344156" operator="dilate" in="SourceAlpha" result="effect2_dropShadow_2054_1674"/>
<feOffset dy="0.344156"/>
<feComposite in2="hardAlpha" operator="out"/>
<feColorMatrix type="matrix" values="0 0 0 0 0 0 0 0 0 0 0 0 0 0 0 0 0 0 0.06 0"/>
<feBlend mode="normal" in2="effect1_dropShadow_2054_1674" result="effect2_dropShadow_2054_1674"/>
<feBlend mode="normal" in="SourceGraphic" in2="effect2_dropShadow_2054_1674" result="shape"/>
</filter>
<clipPath id="clip0_2054_1674">
<rect width="310" height="248" rx="14" fill="white"/>
</clipPath>
</defs>
</svg>
